<svg xmlns="http://www.w3.org/2000/svg" viewBox="0 0 58.538 16" width="234.152" height="64" role="img" aria-label="formwork, by firmfooting">
<title>formwork, by firmfooting</title>
<g fill="#2A6B64"><rect x="0" y="0" width="16" height="16" rx="3.5"/></g>
<g fill="#FFFFFF"><path d="M6 5L10 5L13 9L3 9Z"/><rect x="2" y="10" width="12" height="1" rx="0.5"/></g>
<g fill="#2A6B64" fill-rule="evenodd"><path d="M21.019 1.51V1.553Q21.019 1.568 21.033 1.568H21.411Q21.447 1.568 21.447 1.604V1.848Q21.447 1.884 21.411 1.884H21.033Q21.019 1.884 21.019 1.899V3.364Q21.019 3.4 20.983 3.4H20.709Q20.673 3.4 20.673 3.364V1.899Q20.673 1.884 20.659 1.884H20.418Q20.382 1.884 20.382 1.848V1.604Q20.382 1.568 20.418 1.568H20.659Q20.673 1.568 20.673 1.553V1.488Q20.673 1.251 20.729 1.121Q20.785 0.992 20.918 0.936Q21.051 0.88 21.292 0.88H21.415Q21.451 0.88 21.451 0.916V1.146Q21.451 1.182 21.415 1.182H21.328Q21.148 1.182 21.084 1.251Q21.019 1.319 21.019 1.51Z"/><path d="M21.894 1.049Q21.894 0.948 21.958 0.884Q22.023 0.819 22.124 0.819Q22.225 0.819 22.29 0.884Q22.354 0.948 22.354 1.049Q22.354 1.15 22.29 1.215Q22.225 1.28 22.124 1.28Q22.023 1.28 21.958 1.215Q21.894 1.15 21.894 1.049ZM21.944 3.36V1.604Q21.944 1.568 21.98 1.568H22.254Q22.29 1.568 22.29 1.604V3.36Q22.29 3.396 22.254 3.396H21.98Q21.944 3.396 21.944 3.36Z"/><path d="M23.917 1.596Q23.942 1.607 23.935 1.64L23.877 1.91Q23.874 1.942 23.834 1.931Q23.773 1.906 23.69 1.906L23.64 1.91Q23.47 1.917 23.361 2.027Q23.251 2.136 23.251 2.313V3.364Q23.251 3.4 23.215 3.4H22.941Q22.905 3.4 22.905 3.364V1.604Q22.905 1.568 22.941 1.568H23.215Q23.251 1.568 23.251 1.604V1.794Q23.251 1.805 23.256 1.807Q23.262 1.809 23.265 1.802Q23.427 1.55 23.708 1.55Q23.823 1.55 23.917 1.596Z"/><path d="M26.808 2.162V3.364Q26.808 3.4 26.772 3.4H26.502Q26.466 3.4 26.466 3.364V2.234Q26.466 2.054 26.367 1.947Q26.268 1.841 26.102 1.841Q25.936 1.841 25.832 1.946Q25.728 2.05 25.728 2.226V3.364Q25.728 3.4 25.692 3.4H25.422Q25.386 3.4 25.386 3.364V2.234Q25.386 2.054 25.287 1.947Q25.188 1.841 25.022 1.841Q24.856 1.841 24.757 1.946Q24.658 2.05 24.658 2.226V3.364Q24.658 3.4 24.622 3.4H24.349Q24.313 3.4 24.313 3.364V1.604Q24.313 1.568 24.349 1.568H24.622Q24.658 1.568 24.658 1.604V1.726Q24.658 1.733 24.664 1.737Q24.669 1.74 24.676 1.733Q24.835 1.542 25.137 1.542Q25.321 1.542 25.45 1.613Q25.58 1.683 25.652 1.82Q25.663 1.834 25.674 1.82Q25.76 1.679 25.902 1.611Q26.044 1.542 26.217 1.542Q26.491 1.542 26.649 1.706Q26.808 1.87 26.808 2.162Z"/><path d="M27.855 1.51V1.553Q27.855 1.568 27.87 1.568H28.248Q28.284 1.568 28.284 1.604V1.848Q28.284 1.884 28.248 1.884H27.87Q27.855 1.884 27.855 1.899V3.364Q27.855 3.4 27.819 3.4H27.546Q27.51 3.4 27.51 3.364V1.899Q27.51 1.884 27.495 1.884H27.254Q27.218 1.884 27.218 1.848V1.604Q27.218 1.568 27.254 1.568H27.495Q27.51 1.568 27.51 1.553V1.488Q27.51 1.251 27.565 1.121Q27.621 0.992 27.754 0.936Q27.888 0.88 28.129 0.88H28.251Q28.287 0.88 28.287 0.916V1.146Q28.287 1.182 28.251 1.182H28.165Q27.985 1.182 27.92 1.251Q27.855 1.319 27.855 1.51Z"/><path d="M28.759 2.918Q28.694 2.723 28.694 2.478Q28.694 2.223 28.755 2.046Q28.834 1.809 29.032 1.674Q29.23 1.539 29.504 1.539Q29.763 1.539 29.956 1.674Q30.148 1.809 30.231 2.043Q30.296 2.226 30.296 2.475Q30.296 2.727 30.231 2.918Q30.152 3.159 29.958 3.294Q29.763 3.429 29.5 3.429Q29.234 3.429 29.036 3.294Q28.838 3.159 28.759 2.918ZM29.907 2.82Q29.947 2.684 29.947 2.482Q29.947 2.28 29.911 2.147Q29.864 2 29.756 1.919Q29.648 1.838 29.493 1.838Q29.346 1.838 29.238 1.919Q29.13 2 29.083 2.147Q29.043 2.273 29.043 2.482Q29.043 2.691 29.083 2.82Q29.126 2.968 29.236 3.049Q29.346 3.13 29.5 3.13Q29.644 3.13 29.752 3.049Q29.86 2.968 29.907 2.82Z"/><path d="M30.829 2.918Q30.764 2.723 30.764 2.478Q30.764 2.223 30.825 2.046Q30.904 1.809 31.102 1.674Q31.3 1.539 31.574 1.539Q31.833 1.539 32.026 1.674Q32.218 1.809 32.301 2.043Q32.366 2.226 32.366 2.475Q32.366 2.727 32.301 2.918Q32.222 3.159 32.028 3.294Q31.833 3.429 31.57 3.429Q31.304 3.429 31.106 3.294Q30.908 3.159 30.829 2.918ZM31.977 2.82Q32.017 2.684 32.017 2.482Q32.017 2.28 31.981 2.147Q31.934 2 31.826 1.919Q31.718 1.838 31.563 1.838Q31.416 1.838 31.308 1.919Q31.2 2 31.153 2.147Q31.113 2.273 31.113 2.482Q31.113 2.691 31.153 2.82Q31.196 2.968 31.306 3.049Q31.416 3.13 31.57 3.13Q31.714 3.13 31.822 3.049Q31.93 2.968 31.977 2.82Z"/><path d="M33.759 1.852H33.37Q33.356 1.852 33.356 1.866V2.82Q33.356 2.972 33.424 3.038Q33.493 3.105 33.637 3.105H33.741Q33.777 3.105 33.777 3.141V3.364Q33.777 3.4 33.741 3.4Q33.626 3.407 33.576 3.407Q33.302 3.407 33.163 3.308Q33.025 3.209 33.025 2.943V1.866Q33.025 1.852 33.01 1.852H32.791Q32.755 1.852 32.755 1.816V1.604Q32.755 1.568 32.791 1.568H33.01Q33.025 1.568 33.025 1.553V1.128Q33.025 1.092 33.061 1.092H33.32Q33.356 1.092 33.356 1.128V1.553Q33.356 1.568 33.37 1.568H33.759Q33.795 1.568 33.795 1.604V1.816Q33.795 1.852 33.759 1.852Z"/><path d="M34.27 1.049Q34.27 0.948 34.335 0.884Q34.4 0.819 34.501 0.819Q34.602 0.819 34.666 0.884Q34.731 0.948 34.731 1.049Q34.731 1.15 34.666 1.215Q34.602 1.28 34.501 1.28Q34.4 1.28 34.335 1.215Q34.27 1.15 34.27 1.049ZM34.321 3.36V1.604Q34.321 1.568 34.357 1.568H34.63Q34.666 1.568 34.666 1.604V3.36Q34.666 3.396 34.63 3.396H34.357Q34.321 3.396 34.321 3.36Z"/><path d="M36.74 2.176V3.364Q36.74 3.4 36.704 3.4H36.43Q36.394 3.4 36.394 3.364V2.244Q36.394 2.064 36.29 1.953Q36.186 1.841 36.013 1.841Q35.844 1.841 35.736 1.953Q35.628 2.064 35.628 2.241V3.364Q35.628 3.4 35.592 3.4H35.318Q35.282 3.4 35.282 3.364V1.604Q35.282 1.568 35.318 1.568H35.592Q35.628 1.568 35.628 1.604V1.733Q35.628 1.74 35.633 1.744Q35.638 1.748 35.642 1.74Q35.797 1.542 36.099 1.542Q36.394 1.542 36.567 1.713Q36.74 1.884 36.74 2.176Z"/><path d="M38.468 1.568H38.742Q38.778 1.568 38.778 1.604V3.306Q38.778 3.742 38.531 3.929Q38.284 4.116 37.87 4.116Q37.813 4.116 37.69 4.109Q37.654 4.106 37.654 4.07L37.665 3.821Q37.665 3.807 37.676 3.796Q37.687 3.785 37.705 3.789Q37.755 3.792 37.852 3.792Q38.158 3.792 38.295 3.679Q38.432 3.566 38.432 3.296V3.231Q38.432 3.224 38.427 3.22Q38.421 3.216 38.414 3.224Q38.263 3.4 37.971 3.4Q37.737 3.4 37.548 3.278Q37.359 3.155 37.287 2.918Q37.24 2.759 37.24 2.478Q37.24 2.18 37.294 2.018Q37.363 1.802 37.537 1.67Q37.712 1.539 37.95 1.539Q38.245 1.539 38.414 1.719Q38.421 1.726 38.427 1.724Q38.432 1.722 38.432 1.715V1.604Q38.432 1.568 38.468 1.568ZM38.432 2.475Q38.432 2.324 38.427 2.261Q38.421 2.198 38.407 2.14Q38.378 2.007 38.277 1.922Q38.176 1.838 38.025 1.838Q37.874 1.838 37.773 1.922Q37.672 2.007 37.629 2.14Q37.59 2.248 37.59 2.475Q37.59 2.723 37.626 2.813Q37.662 2.946 37.768 3.031Q37.874 3.116 38.025 3.116Q38.184 3.116 38.283 3.031Q38.382 2.946 38.41 2.813Q38.421 2.756 38.427 2.691Q38.432 2.626 38.432 2.475Z"/></g>
<g fill="#182020" fill-rule="evenodd"><path d="M23.06 6.5V7.211Q23.06 7.256 23.029 7.288Q22.997 7.319 22.952 7.319H22.061Q22.016 7.319 22.016 7.364V10.892Q22.016 10.937 21.984 10.968Q21.953 11 21.908 11H21.08Q21.035 11 21.004 10.968Q20.972 10.937 20.972 10.892V7.364Q20.972 7.319 20.927 7.319H20.369Q20.324 7.319 20.293 7.288Q20.261 7.256 20.261 7.211V6.5Q20.261 6.455 20.293 6.424Q20.324 6.392 20.369 6.392H20.927Q20.972 6.392 20.972 6.347V6.185Q20.972 5.6 21.125 5.28Q21.278 4.961 21.629 4.826Q21.98 4.691 22.619 4.7H22.934Q22.979 4.7 23.011 4.732Q23.042 4.763 23.042 4.808V5.438Q23.042 5.483 23.011 5.514Q22.979 5.546 22.934 5.546H22.7Q22.313 5.546 22.164 5.699Q22.016 5.852 22.016 6.257V6.347Q22.016 6.392 22.061 6.392H22.952Q22.997 6.392 23.029 6.424Q23.06 6.455 23.06 6.5Z"/><path d="M23.87 9.713Q23.717 9.227 23.717 8.687Q23.717 8.111 23.861 7.661Q24.068 7.031 24.581 6.68Q25.094 6.329 25.814 6.329Q26.498 6.329 26.998 6.68Q27.497 7.031 27.704 7.652Q27.866 8.084 27.866 8.678Q27.866 9.245 27.713 9.704Q27.506 10.343 27.002 10.707Q26.498 11.072 25.805 11.072Q25.094 11.072 24.586 10.712Q24.077 10.352 23.87 9.713ZM26.723 9.452Q26.813 9.155 26.813 8.696Q26.813 8.21 26.723 7.94Q26.624 7.598 26.381 7.414Q26.138 7.229 25.787 7.229Q25.454 7.229 25.211 7.414Q24.968 7.598 24.86 7.94Q24.77 8.255 24.77 8.696Q24.77 9.137 24.86 9.452Q24.959 9.794 25.206 9.983Q25.454 10.172 25.805 10.172Q26.138 10.172 26.377 9.983Q26.615 9.794 26.723 9.452Z"/><path d="M31.412 6.464Q31.484 6.5 31.466 6.599L31.313 7.409Q31.304 7.517 31.187 7.472Q31.052 7.427 30.872 7.427Q30.755 7.427 30.692 7.436Q30.314 7.454 30.062 7.702Q29.81 7.949 29.81 8.345V10.892Q29.81 10.937 29.779 10.968Q29.747 11 29.702 11H28.874Q28.829 11 28.797 10.968Q28.766 10.937 28.766 10.892V6.509Q28.766 6.464 28.797 6.433Q28.829 6.401 28.874 6.401H29.702Q29.747 6.401 29.779 6.433Q29.81 6.464 29.81 6.509V6.914Q29.81 6.95 29.823 6.955Q29.837 6.959 29.855 6.932Q30.233 6.347 30.908 6.347Q31.196 6.347 31.412 6.464Z"/><path d="M38.459 7.913V10.892Q38.459 10.937 38.427 10.968Q38.396 11 38.351 11H37.532Q37.487 11 37.456 10.968Q37.424 10.937 37.424 10.892V8.129Q37.424 7.715 37.203 7.472Q36.983 7.229 36.614 7.229Q36.245 7.229 36.011 7.472Q35.777 7.715 35.777 8.12V10.892Q35.777 10.937 35.745 10.968Q35.714 11 35.669 11H34.85Q34.805 11 34.773 10.968Q34.742 10.937 34.742 10.892V8.129Q34.742 7.715 34.517 7.472Q34.292 7.229 33.923 7.229Q33.581 7.229 33.361 7.427Q33.14 7.625 33.104 7.967V10.892Q33.104 10.937 33.072 10.968Q33.041 11 32.996 11H32.168Q32.123 11 32.091 10.968Q32.06 10.937 32.06 10.892V6.509Q32.06 6.464 32.091 6.433Q32.123 6.401 32.168 6.401H32.996Q33.041 6.401 33.072 6.433Q33.104 6.464 33.104 6.509V6.806Q33.104 6.833 33.122 6.842Q33.14 6.851 33.158 6.824Q33.356 6.572 33.648 6.45Q33.941 6.329 34.301 6.329Q34.742 6.329 35.075 6.509Q35.408 6.689 35.588 7.031Q35.615 7.067 35.651 7.031Q35.849 6.671 36.2 6.5Q36.551 6.329 36.983 6.329Q37.676 6.329 38.067 6.748Q38.459 7.166 38.459 7.913Z"/><path d="M40.394 10.91 39.107 6.518 39.098 6.482Q39.098 6.392 39.197 6.392H40.052Q40.151 6.392 40.178 6.482L40.925 9.488Q40.934 9.515 40.952 9.515Q40.97 9.515 40.979 9.488L41.762 6.482Q41.789 6.392 41.888 6.392H42.635Q42.734 6.392 42.761 6.482L43.562 9.488Q43.571 9.515 43.589 9.515Q43.607 9.515 43.616 9.488L44.417 6.482Q44.444 6.392 44.543 6.392L45.389 6.41Q45.443 6.41 45.465 6.442Q45.488 6.473 45.479 6.527L44.183 10.91Q44.156 11 44.066 11H43.202Q43.103 11 43.076 10.91L42.284 8.165Q42.275 8.138 42.257 8.138Q42.239 8.138 42.23 8.165L41.501 10.91Q41.474 11 41.375 11H40.52Q40.421 11 40.394 10.91Z"/><path d="M46.208 9.713Q46.055 9.227 46.055 8.687Q46.055 8.111 46.199 7.661Q46.406 7.031 46.919 6.68Q47.432 6.329 48.152 6.329Q48.836 6.329 49.335 6.68Q49.835 7.031 50.042 7.652Q50.204 8.084 50.204 8.678Q50.204 9.245 50.051 9.704Q49.844 10.343 49.34 10.707Q48.836 11.072 48.143 11.072Q47.432 11.072 46.923 10.712Q46.415 10.352 46.208 9.713ZM49.061 9.452Q49.151 9.155 49.151 8.696Q49.151 8.21 49.061 7.94Q48.962 7.598 48.719 7.414Q48.476 7.229 48.125 7.229Q47.792 7.229 47.549 7.414Q47.306 7.598 47.198 7.94Q47.108 8.255 47.108 8.696Q47.108 9.137 47.198 9.452Q47.297 9.794 47.544 9.983Q47.792 10.172 48.143 10.172Q48.476 10.172 48.715 9.983Q48.953 9.794 49.061 9.452Z"/><path d="M53.75 6.464Q53.822 6.5 53.804 6.599L53.651 7.409Q53.642 7.517 53.525 7.472Q53.39 7.427 53.21 7.427Q53.093 7.427 53.03 7.436Q52.652 7.454 52.4 7.702Q52.148 7.949 52.148 8.345V10.892Q52.148 10.937 52.117 10.968Q52.085 11 52.04 11H51.212Q51.167 11 51.136 10.968Q51.104 10.937 51.104 10.892V6.509Q51.104 6.464 51.136 6.433Q51.167 6.401 51.212 6.401H52.04Q52.085 6.401 52.117 6.433Q52.148 6.464 52.148 6.509V6.914Q52.148 6.95 52.161 6.955Q52.175 6.959 52.193 6.932Q52.571 6.347 53.246 6.347Q53.534 6.347 53.75 6.464Z"/><path d="M54.398 10.892V4.808Q54.398 4.763 54.429 4.732Q54.461 4.7 54.506 4.7H55.334Q55.379 4.7 55.41 4.732Q55.442 4.763 55.442 4.808V8.057Q55.442 8.084 55.46 8.093Q55.478 8.102 55.496 8.075L56.954 6.464Q57.017 6.401 57.089 6.401H58.043Q58.133 6.401 58.133 6.464Q58.133 6.491 58.106 6.536L56.963 7.904Q56.936 7.931 56.954 7.967L58.304 10.874Q58.322 10.91 58.322 10.928Q58.322 11 58.223 11H57.35Q57.26 11 57.224 10.919L56.243 8.633Q56.234 8.615 56.211 8.611Q56.189 8.606 56.18 8.624L55.46 9.452Q55.442 9.488 55.442 9.515V10.892Q55.442 10.937 55.41 10.968Q55.379 11 55.334 11H54.506Q54.461 11 54.429 10.968Q54.398 10.937 54.398 10.892Z"/></g>
</svg>
